# xmcd
#
# Track frame offsets:
#	150
#	16633
#	27714
#	47349
#	64417
#	78524
#	95394
#	108225
#	123180
#	139130
#	154636
#	170279
#
# Disc length: 2466 seconds
#
# Revision: 1
# Processed by: cddbd v1.5.1PL0 Copyright (c) Steve Scherf et al.
# Submitted via: audiograbber 1.83.01
#
DISCID=8e09a00c
DTITLE=Die Rancher - Ich hab' Dein Bild im Portemonnaie
DYEAR=1991
DGENRE=Country
TTITLE0=Ich hab' Dein Bild im Portemonnaie
TTITLE1=JAMBALAYA
TTITLE2=MEINE ROCKY MOUNTAINS
TTITLE3=DER LETZTE ZUG NACH SAN FERNANDO
TTITLE4=SCHENK MIR DEI HERZERL,MARY ROSE
TTITLE5=A LAGERFEUER UND A KIST'N BIER
TTITLE6=GUTE FAHRT UND GUTE REISE (Morning Sun)
TTITLE7=SCHENK DEIN HERZ NIEMALS EINEM COWBOY
TTITLE8=RIO GRANDE
TTITLE9=WARUM HAST DU DEN ANDEREN G'NOMMEN
TTITLE10=WIE A STARKER KAFFEE
TTITLE11=FEIERN KANN MAN NICHT NUR IN BAYERN
EXTD=Country aus Bayern
EXTT0=
EXTT1=
EXTT2=
EXTT3=
EXTT4=
EXTT5=
EXTT6=
EXTT7=
EXTT8=
EXTT9=
EXTT10=
EXTT11=
PLAYORDER=
